<?xml version="1.0" ?><!DOCTYPE svg  PUBLIC '-//W3C//DTD SVG 1.1//EN'  'http://www.w3.org/Graphics/SVG/1.1/DTD/svg11.dtd'><svg id="Layer_1" style="enable-background:new 0 0 64 64;" version="1.1" viewBox="0 0 64 64" xml:space="preserve" xmlns="http://www.w3.org/2000/svg" xmlns:xlink="http://www.w3.org/1999/xlink"><style type="text/css">
	.st0{fill:#ffffff;}
</style><g><g id="Icon-Share-Google" transform="translate(280.000000, 380.000000)"><path class="st0" d="M-264.2-339.9c-4.4,0-7.9-3.5-7.9-7.9c0-4.4,3.5-7.9,7.9-7.9c4.4,0,7.9,3.5,7.9,7.9     C-256.3-343.5-259.8-339.9-264.2-339.9L-264.2-339.9z M-264.2-352.8c-2.7,0-4.9,2.2-4.9,4.9c0,2.7,2.2,4.9,4.9,4.9     c2.7,0,4.9-2.2,4.9-4.9C-259.3-350.5-261.5-352.8-264.2-352.8L-264.2-352.8z" id="Fill-61"/><path class="st0" d="M-232.1-356c-4.4,0-7.9-3.5-7.9-7.9s3.5-7.9,7.9-7.9s7.9,3.5,7.9,7.9S-227.8-356-232.1-356     L-232.1-356z M-232.1-368.8c-2.7,0-4.9,2.2-4.9,4.9s2.2,4.9,4.9,4.9s4.9-2.2,4.9-4.9S-229.4-368.8-232.1-368.8L-232.1-368.8z" id="Fill-62"/><path class="st0" d="M-232.1-323.9c-4.4,0-7.9-3.5-7.9-7.9s3.5-7.9,7.9-7.9s7.9,3.5,7.9,7.9     S-227.8-323.9-232.1-323.9L-232.1-323.9z M-232.1-336.7c-2.7,0-4.9,2.2-4.9,4.9s2.2,4.9,4.9,4.9s4.9-2.2,4.9-4.9     S-229.4-336.7-232.1-336.7L-232.1-336.7z" id="Fill-63"/><polyline class="st0" id="Fill-64" points="-238.6,-333.2 -259.2,-343.5 -257.8,-346.4 -237.1,-336.1 -238.6,-333.2    "/><polyline class="st0" id="Fill-65" points="-257.8,-349.3 -259.2,-352.1 -238.6,-362.4 -237.1,-359.6 -257.8,-349.3    "/></g></g></svg>