<?xml version="1.0" encoding="UTF-8"?>
<svg width="344px" height="141px" viewBox="0 0 344 141" version="1.1" xmlns="http://www.w3.org/2000/svg" xmlns:xlink="http://www.w3.org/1999/xlink">
    <!-- Generator: Sketch 42 (36781) - http://www.bohemiancoding.com/sketch -->
    <title>white_full</title>
    <desc>Created with Sketch.</desc>
    <defs></defs>
    <g id="Page-1" stroke="none" stroke-width="1" fill="none" fill-rule="evenodd">
        <g id="white_full" fill="#FFFFFF">
            <g id="Group">
                <path d="M0,11.9911524 C0,5.36862181 5.37657835,0 11.9911524,0 L129.008848,0 C135.631378,0 141,5.37657835 141,11.9911524 L141,129.008848 C141,135.631378 135.623422,141 129.008848,141 L11.9911524,141 C5.36862181,141 0,135.623422 0,129.008848 L0,11.9911524 Z M59.609375,116.390625 C59.609375,114.867188 60.2539062,113.666016 61.5136719,112.787109 C62.7734375,111.908203 64.5605469,111.46875 66.8457031,111.46875 C68.2519531,111.46875 69.5996094,111.585938 70.859375,111.820312 C72.1191406,112.054688 73.203125,112.347656 74.1113281,112.699219 L74.1113281,114.515625 C74.1113281,115.511719 73.90625,116.419922 73.4960938,117.240234 C73.0859375,118.060547 72.5,118.763672 71.7382812,119.320312 C70.9765625,119.90625 70.0976562,120.375 69.0722656,120.697266 C68.046875,121.019531 66.9335938,121.195312 65.7324219,121.195312 C64.0039062,121.195312 62.5390625,120.785156 61.3671875,119.994141 C60.1953125,119.203125 59.609375,118.03125 59.609375,116.507812 L59.609375,116.390625 Z M55.8007812,124.183594 C56.8261719,125.003906 58.0273438,125.619141 59.375,126.029297 C60.7226562,126.439453 62.1582031,126.644531 63.6816406,126.644531 C66.0839844,126.644531 68.1347656,126.205078 69.8046875,125.326172 C71.4746094,124.447266 72.8515625,123.363281 73.9355469,122.074219 L73.9355469,125.970703 L81.1425781,125.970703 L81.1425781,107.191406 C81.1425781,102.943359 80,99.6621094 77.7148438,97.3183594 C75.4296875,94.9746094 71.9140625,93.8027344 67.1972656,93.8027344 C64.5898438,93.8027344 62.3632812,94.0371094 60.5175781,94.5058594 C58.671875,94.9746094 56.8554688,95.6191406 55.0976562,96.4101562 L57.0898438,102.240234 C58.5253906,101.625 59.9316406,101.126953 61.3378906,100.775391 C62.7441406,100.423828 64.3554688,100.248047 66.1425781,100.248047 C68.6621094,100.248047 70.5957031,100.833984 71.9433594,102.005859 C73.2910156,103.177734 73.9648438,104.876953 73.9648438,107.074219 L73.9648438,107.660156 C72.734375,107.279297 71.4453125,106.957031 70.0976562,106.722656 C68.75,106.488281 67.109375,106.371094 65.2050781,106.371094 C63.359375,106.371094 61.6601562,106.576172 60.078125,106.986328 C58.4960938,107.396484 57.1484375,108.041016 56.0058594,108.890625 C54.8632812,109.740234 53.9550781,110.824219 53.3105469,112.142578 C52.6660156,113.460938 52.34375,114.984375 52.34375,116.742188 L52.34375,116.859375 C52.34375,118.470703 52.6660156,119.876953 53.28125,121.107422 C53.8964844,122.337891 54.7167969,123.363281 55.7421875,124.183594 L55.8007812,124.183594 Z M97.4609375,126 L97.4609375,82.2011719 L90.1953125,82.2011719 L90.1953125,126 L97.4609375,126 Z M108.417969,100.570312 L108.417969,117.240234 C108.417969,118.998047 108.652344,120.462891 109.091797,121.634766 C109.53125,122.806641 110.175781,123.773438 110.996094,124.505859 C111.816406,125.238281 112.783203,125.765625 113.896484,126.087891 C115.009766,126.410156 116.240234,126.556641 117.558594,126.556641 C118.935547,126.556641 120.136719,126.410156 121.162109,126.146484 C122.1875,125.882812 123.154297,125.472656 124.0625,124.945312 L124.0625,118.998047 C123.359375,119.349609 122.626953,119.613281 121.865234,119.789062 C121.103516,119.964844 120.341797,120.052734 119.550781,120.052734 C118.291016,120.052734 117.324219,119.730469 116.650391,119.115234 C115.976562,118.5 115.625,117.474609 115.625,116.068359 L115.625,100.541016 L124.121094,100.541016 L124.121094,94.3007812 L115.625,94.3007812 L115.625,85.5996094 L108.359375,85.5996094 L108.359375,94.3007812 L104.345703,94.3007812 L104.345703,100.541016 L108.417969,100.570312 Z" id="Combined-Shape"></path>
                <path d="M166.180664,127.615234 C167.811035,127.615234 169.349121,127.399902 170.76416,126.969238 C172.179199,126.538574 173.409668,125.892578 174.455566,125.062012 C175.470703,124.231445 176.30127,123.216309 176.916504,122.016602 C177.531738,120.816895 177.839355,119.432617 177.839355,117.86377 L177.839355,117.740723 C177.839355,116.26416 177.531738,115.033691 176.916504,114.018555 C176.30127,113.003418 175.501465,112.14209 174.486328,111.43457 C173.471191,110.727051 172.333008,110.142578 171.102539,109.681152 C169.87207,109.219727 168.61084,108.789062 167.349609,108.419922 C166.272949,108.081543 165.227051,107.743164 164.211914,107.404785 C163.196777,107.066406 162.304688,106.697266 161.535645,106.266602 C160.766602,105.866699 160.151367,105.374512 159.689941,104.820801 C159.228516,104.26709 158.982422,103.590332 158.982422,102.821289 L158.982422,102.66748 C158.982422,101.344727 159.566895,100.237305 160.705078,99.3452148 C161.843262,98.453125 163.381348,97.9916992 165.319336,97.9916992 C166.888184,97.9916992 168.518555,98.2685547 170.179688,98.8222656 C171.84082,99.3759766 173.44043,100.14502 174.947754,101.098633 L177.162598,97.4379883 C175.470703,96.3613281 173.594238,95.5 171.533203,94.8540039 C169.472168,94.2080078 167.441895,93.8696289 165.442383,93.8696289 C163.842773,93.8696289 162.366211,94.0849609 161.012695,94.515625 C159.65918,94.9462891 158.490234,95.5922852 157.505859,96.4228516 C156.521484,97.253418 155.752441,98.237793 155.19873,99.3759766 C154.64502,100.51416 154.368164,101.775391 154.368164,103.159668 L154.368164,103.282715 C154.368164,104.790039 154.706543,106.05127 155.352539,107.066406 C155.998535,108.081543 156.829102,108.912109 157.844238,109.588867 C158.859375,110.265625 160.02832,110.819336 161.320312,111.25 C162.612305,111.680664 163.873535,112.080566 165.134766,112.449707 C166.211426,112.726562 167.226562,113.03418 168.210938,113.372559 C169.195312,113.710938 170.056641,114.11084 170.825684,114.541504 C171.594727,115.00293 172.209961,115.525879 172.640625,116.110352 C173.071289,116.694824 173.286621,117.402344 173.286621,118.202148 L173.286621,118.325195 C173.286621,119.924805 172.640625,121.186035 171.379395,122.108887 C170.118164,123.031738 168.487793,123.493164 166.519043,123.493164 C164.581055,123.493164 162.643066,123.124023 160.73584,122.416504 C158.828613,121.708984 156.98291,120.663086 155.229492,119.30957 L152.768555,122.785645 C154.614258,124.262207 156.736816,125.431152 159.13623,126.29248 C161.535645,127.153809 163.904297,127.584473 166.272949,127.584473 L166.180664,127.615234 Z M188.528809,122.754883 C190.005371,124.292969 191.758789,125.523438 193.789062,126.415527 C195.819336,127.307617 198.03418,127.769043 200.433594,127.769043 C203.509766,127.769043 206.09375,127.18457 208.154785,126.015625 C210.21582,124.84668 212.061523,123.339355 213.691895,121.493652 L210.615723,118.602051 C209.32373,119.986328 207.87793,121.124512 206.247559,122.047363 C204.617188,122.970215 202.771484,123.431641 200.679688,123.431641 C198.957031,123.431641 197.357422,123.093262 195.911621,122.447266 C194.46582,121.80127 193.20459,120.878418 192.12793,119.709473 C191.05127,118.571289 190.220703,117.217773 189.605469,115.679688 C188.990234,114.141602 188.682617,112.480469 188.682617,110.727051 L188.682617,110.604004 C188.682617,108.850586 188.990234,107.189453 189.574707,105.651367 C190.15918,104.113281 190.989746,102.759766 192.035645,101.621582 C193.081543,100.483398 194.312012,99.5913086 195.727051,98.9453125 C197.14209,98.2993164 198.680176,97.9609375 200.310547,97.9609375 C202.556152,97.9609375 204.432617,98.453125 205.970703,99.4067383 C207.508789,100.360352 208.923828,101.529297 210.21582,102.882812 L213.415039,99.4682617 C212.645996,98.668457 211.81543,97.8994141 210.92334,97.1918945 C210.03125,96.484375 209.077637,95.8691406 208.031738,95.3461914 C206.98584,94.8232422 205.816895,94.4233398 204.555664,94.1464844 C203.294434,93.8696289 201.879395,93.7158203 200.310547,93.7158203 C197.941895,93.7158203 195.727051,94.1772461 193.696777,95.0693359 C191.666504,95.9614258 189.913086,97.1918945 188.436523,98.7299805 C186.929199,100.298828 185.760254,102.11377 184.929688,104.174805 C184.099121,106.23584 183.668457,108.419922 183.668457,110.727051 L183.668457,110.850098 C183.668457,113.095703 184.099121,115.249023 184.929688,117.310059 C185.760254,119.371094 186.929199,121.186035 188.436523,122.724121 L188.528809,122.754883 Z M225.581055,127 L225.581055,108.358398 C225.581055,106.851074 225.827148,105.466797 226.319336,104.205566 C226.811523,102.944336 227.488281,101.867676 228.380371,100.975586 C229.272461,100.083496 230.318359,99.3759766 231.518066,98.8837891 C232.717773,98.3916016 234.009766,98.1455078 235.394043,98.1455078 C238.316406,98.1455078 240.562012,99.0375977 242.100098,100.821777 C243.638184,102.605957 244.407227,105.005371 244.407227,108.02002 L244.407227,127.030762 L249.267578,127.030762 L249.267578,106.820312 C249.267578,104.882324 248.990723,103.098145 248.437012,101.498535 C247.883301,99.8989258 247.052734,98.5146484 245.976074,97.3457031 C244.899414,96.2075195 243.57666,95.3154297 242.038574,94.7001953 C240.500488,94.0849609 238.74707,93.7773438 236.77832,93.7773438 C233.979004,93.7773438 231.702637,94.3925781 229.949219,95.6230469 C228.195801,96.8535156 226.780762,98.3608398 225.704102,100.114258 L225.704102,81.0112305 L220.84375,81.0112305 L220.84375,127 L225.581055,127 Z M261.495117,110.665527 L261.464355,110.788574 C261.464355,112.541992 261.771973,114.203125 262.387207,115.741211 C263.002441,117.279297 263.833008,118.602051 264.909668,119.740234 C265.986328,120.878418 267.247559,121.80127 268.724121,122.478027 C270.200684,123.154785 271.800293,123.493164 273.522949,123.493164 C275.276367,123.493164 276.906738,123.154785 278.383301,122.478027 C279.859863,121.80127 281.121094,120.878418 282.166992,119.740234 C283.212891,118.602051 284.043457,117.279297 284.62793,115.771973 C285.212402,114.264648 285.52002,112.634277 285.52002,110.911621 L285.52002,110.788574 C285.52002,109.035156 285.212402,107.374023 284.597168,105.835938 C283.981934,104.297852 283.120605,102.944336 282.043945,101.775391 C280.967285,100.637207 279.675293,99.7143555 278.19873,99.0375977 C276.722168,98.3608398 275.122559,98.0224609 273.399902,98.0224609 C271.646484,98.0224609 270.016113,98.3608398 268.539551,99.0375977 C267.062988,99.7143555 265.801758,100.606445 264.786621,101.744629 C263.771484,102.882812 262.97168,104.236328 262.387207,105.774414 C261.802734,107.3125 261.495117,108.942871 261.495117,110.665527 Z M273.399902,127.769043 C270.969727,127.769043 268.724121,127.307617 266.663086,126.415527 C264.602051,125.523438 262.817871,124.292969 261.310547,122.754883 L261.341309,122.785645 C259.833984,121.247559 258.665039,119.463379 257.834473,117.433105 C257.003906,115.402832 256.573242,113.21875 256.573242,110.911621 L256.573242,110.788574 C256.573242,108.481445 257.003906,106.297363 257.834473,104.236328 C258.665039,102.175293 259.833984,100.360352 261.341309,98.7915039 C262.848633,97.253418 264.632812,96.0229492 266.724609,95.1308594 C268.816406,94.2387695 271.092773,93.7773438 273.584473,93.7773438 C276.014648,93.7773438 278.260254,94.2387695 280.321289,95.1308594 C282.382324,96.0229492 284.166504,97.2226562 285.673828,98.7299805 C287.181152,100.268066 288.350098,102.052246 289.180664,104.08252 C290.01123,106.112793 290.441895,108.296875 290.441895,110.604004 L290.441895,110.727051 C290.441895,113.03418 290.01123,115.218262 289.149902,117.279297 C288.288574,119.340332 287.119629,121.155273 285.612305,122.724121 C284.10498,124.292969 282.290039,125.523438 280.198242,126.415527 C278.106445,127.307617 275.830078,127.769043 273.399902,127.769043 Z M301.192871,110.665527 L301.162109,110.788574 C301.162109,112.541992 301.469727,114.203125 302.084961,115.741211 C302.700195,117.279297 303.530762,118.602051 304.607422,119.740234 C305.684082,120.878418 306.945312,121.80127 308.421875,122.478027 C309.898438,123.154785 311.498047,123.493164 313.220703,123.493164 C314.974121,123.493164 316.604492,123.154785 318.081055,122.478027 C319.557617,121.80127 320.818848,120.878418 321.864746,119.740234 C322.910645,118.602051 323.741211,117.279297 324.325684,115.771973 C324.910156,114.264648 325.217773,112.634277 325.217773,110.911621 L325.217773,110.788574 C325.217773,109.035156 324.910156,107.374023 324.294922,105.835938 C323.679688,104.297852 322.818359,102.944336 321.741699,101.775391 C320.665039,100.637207 319.373047,99.7143555 317.896484,99.0375977 C316.419922,98.3608398 314.820312,98.0224609 313.097656,98.0224609 C311.344238,98.0224609 309.713867,98.3608398 308.237305,99.0375977 C306.760742,99.7143555 305.499512,100.606445 304.484375,101.744629 C303.469238,102.882812 302.669434,104.236328 302.084961,105.774414 C301.500488,107.3125 301.192871,108.942871 301.192871,110.665527 Z M313.097656,127.769043 C310.66748,127.769043 308.421875,127.307617 306.36084,126.415527 C304.299805,125.523438 302.515625,124.292969 301.008301,122.754883 L301.039062,122.785645 C299.531738,121.247559 298.362793,119.463379 297.532227,117.433105 C296.70166,115.402832 296.270996,113.21875 296.270996,110.911621 L296.270996,110.788574 C296.270996,108.481445 296.70166,106.297363 297.532227,104.236328 C298.362793,102.175293 299.531738,100.360352 301.039062,98.7915039 C302.546387,97.253418 304.330566,96.0229492 306.422363,95.1308594 C308.51416,94.2387695 310.790527,93.7773438 313.282227,93.7773438 C315.712402,93.7773438 317.958008,94.2387695 320.019043,95.1308594 C322.080078,96.0229492 323.864258,97.2226562 325.371582,98.7299805 C326.878906,100.268066 328.047852,102.052246 328.878418,104.08252 C329.708984,106.112793 330.139648,108.296875 330.139648,110.604004 L330.139648,110.727051 C330.139648,113.03418 329.708984,115.218262 328.847656,117.279297 C327.986328,119.340332 326.817383,121.155273 325.310059,122.724121 C323.802734,124.292969 321.987793,125.523438 319.895996,126.415527 C317.804199,127.307617 315.527832,127.769043 313.097656,127.769043 Z M343.197754,127 L343.197754,81.0112305 L338.337402,81.0112305 L338.337402,127 L343.197754,127 Z" id="school"></path>
            </g>
        </g>
    </g>
</svg>